PathFileType	4	(X/Y/Z)	D:\TRACE\spot_10-12-23\spot_arm_body_motion_3_4-v60.trc
DataRate	CameraRate	NumFrames	NumMarkers	Units	OrigDataRate	OrigDataStartFrame	OrigNumFrames
100.00	100.00	      32	9	mm	100.00	876	      7000
Frame#	Time	front left toe			Front right toe			aft left toe			aft right toe			Arm			FL body			FR body			AL Body			AR Body			
		X1	Y1	Z1	X2	Y2	Z2	X3	Y3	Z3	X4	Y4	Z4	X5	Y5	Z5	X6	Y6	Z6	X7	Y7	Z7	X8	Y8	Z8	X9	Y9	Z9	

876	8.750	-160.97585	83.90453	-427.45593	240.64491	4.30514	-392.98840	-145.70599	30.96020	295.01031	267.53046	21.56640	247.27071	68.98288	783.77222	-771.97632	-33.39316	580.36639	-414.30441	118.28825	586.97705	-424.91788	22.53780	566.91388	467.57648	172.97743	566.91522	460.77762	
877	8.760	-161.25981	82.25700	-429.66254	240.63309	4.11150	-393.00388	-145.78416	31.00767	295.01788	267.49719	21.70622	247.21591	69.06013	783.75940	-772.03406	-34.43663	580.01172	-414.88229	117.58096	586.74896	-425.46295	21.70881	566.82800	467.32993	171.83986	567.03241	459.94623	
878	8.770	-162.51483	77.48840	-431.35248	240.63971	3.95189	-393.03125	-145.82050	31.02146	294.97638	267.32904	21.79078	247.02371	69.14281	783.77350	-772.15851	-35.53101	579.42944	-415.13278	116.51629	585.87671	-425.14896	20.86954	566.94989	467.16016	170.72885	567.11780	459.70984	
879	8.780	-163.37025	70.49728	-433.17734	240.66554	3.85846	-393.06744	-145.84219	31.04678	294.98593	267.21948	21.81562	246.91364	69.22504	783.95288	-772.12988	-36.35234	579.00714	-415.39063	115.44264	585.85272	-425.74377	19.99335	566.77478	466.84070	169.77217	567.03271	459.23370	
880	8.790	-164.39754	60.80773	-434.57062	240.70959	3.80674	-393.10870	-145.85222	31.05371	294.93726	267.10199	21.84044	246.73837	69.31396	784.11700	-772.25378	-37.67713	578.82019	-415.98453	114.39986	585.60663	-426.05743	18.43848	566.40643	466.50186	168.67661	566.95313	459.37970	
881	8.800	-165.83414	50.00785	-435.69604	240.77094	3.77228	-393.15155	-145.90363	31.04020	294.89221	266.96616	22.03617	246.51741	69.29563	784.27411	-772.32037	-38.76606	578.34344	-416.21268	113.32240	585.28864	-426.52438	17.05012	566.43109	465.90689	166.95738	566.88623	458.52173	
882	8.810	-166.20769	37.78029	-436.60110	240.84854	3.73062	-393.19229	-145.90421	31.04022	294.83575	266.85825	22.17901	246.42650	69.37421	784.37427	-772.42444	-39.81408	577.84589	-416.89163	112.13334	584.86865	-426.91388	15.26046	566.49713	465.62506	165.71109	567.07922	458.20084	
883	8.820	-166.88475	26.54890	-437.12671	240.94145	3.65730	-393.22745	-145.84740	31.02380	294.70789	266.88934	22.29487	246.38336	69.45647	784.52112	-772.54303	-40.96625	577.29346	-417.46597	110.96073	584.59839	-427.36462	14.00967	566.30200	465.20984	163.68831	567.31891	457.50763	
884	8.830	-167.52084	15.27608	-437.01422	241.04871	3.52784	-393.25323	-145.76324	31.02727	294.69739	266.88950	22.41440	246.19144	69.45421	784.70178	-772.68231	-42.04493	576.67914	-418.00192	109.72315	584.26129	-428.29861	12.00336	565.96423	464.44919	162.19443	567.22375	457.22031	
885	8.840	-168.14145	3.80292	-436.77405	241.16931	3.31780	-393.26617	-145.72548	31.01266	294.60477	266.60358	22.21655	245.89595	69.44009	784.76520	-772.76843	-43.48689	576.05804	-418.69321	108.40977	583.66370	-428.67999	10.77739	565.98114	463.65466	160.77382	567.11523	457.07657	
886	8.850	-169.23996	0.55449	-440.77988	241.22798	3.08854	-393.27670	-145.68083	31.07248	294.57077	266.69775	22.19910	245.71640	69.49987	784.95819	-772.96167	-44.94233	575.56915	-419.44687	107.04694	582.91034	-429.16431	10.21677	565.39697	463.13000	158.86455	567.15283	456.13785	
887	8.860	-170.55405	-0.77842	-439.83344	240.99908	3.09874	-393.32739	-145.76938	31.14128	294.69089	266.64044	22.09159	245.74359	69.58095	784.93091	-773.24426	-46.40619	576.02344	-419.98007	105.28838	583.22375	-429.75208	7.39127	565.74927	462.73456	156.99431	566.43250	455.32748	
888	8.870	-174.43590	2.14770	-436.77295	240.18951	4.13561	-393.19815	-145.95122	31.15235	294.91382	268.02795	21.11458	246.63405	69.16168	785.26685	-773.19714	-48.38383	577.59668	-420.79935	103.55228	584.16296	-430.24820	5.01492	565.24707	462.12662	155.37141	565.73059	454.76782	
889	8.880	-171.34363	2.72626	-436.28018	240.19479	4.57175	-393.25137	-145.75330	31.18403	294.93497	267.96127	21.19240	246.36011	68.69626	786.08105	-772.86719	-50.29419	578.40387	-421.83020	101.74281	584.97754	-431.93658	2.92947	565.20734	460.72266	153.26927	565.53088	453.57935	
890	8.890	-172.60968	1.20997	-435.88547	240.71271	3.51115	-393.62323	-145.99208	30.61208	293.87439	268.40015	25.36101	245.39230	68.99640	786.61865	-772.65399	-52.25867	578.65765	-423.11407	100.07258	585.18982	-433.05496	1.56505	566.05353	459.75537	151.51859	565.72919	452.40176	
891	8.900	-172.23036	0.85988	-437.13666	240.95248	3.19073	-393.88458	-146.67256	30.05929	294.77997	268.62170	32.46512	249.31851	69.76947	786.73846	-773.21613	-54.03938	579.56616	-424.25702	98.08176	585.36792	-434.00568	-0.07411	565.44763	458.20987	149.81042	564.76630	450.93857	
892	8.910	-172.67303	0.48209	-437.39856	240.68607	3.28959	-394.26181	-147.05367	29.22183	293.97250	269.12686	42.61070	257.00433	69.91136	786.85376	-773.59509	-56.14808	580.48444	-425.53592	95.98366	586.24908	-435.83035	-1.91055	564.25189	457.04135	148.21886	563.66895	450.15283	
893	8.920	-172.62453	-0.19817	-437.78470	240.16130	3.51247	-394.56601	-146.24045	30.06266	294.21973	276.21429	57.02990	259.89651	70.35410	787.10333	-773.50970	-57.79517	580.94391	-426.57278	94.16715	586.06415	-436.94876	-3.98105	564.73108	456.00604	146.22054	563.34973	448.55948	
894	8.930	-172.26308	-0.55432	-437.50024	240.45988	3.38406	-394.39999	-146.24092	30.19527	294.00079	278.85257	69.97819	257.10870	70.70028	787.05444	-773.83002	-59.29540	580.67859	-427.69604	92.79861	585.46606	-437.65231	-6.05718	565.28668	454.28137	144.22975	563.91486	447.58405	
895	8.940	-172.39517	-1.25402	-437.41122	241.19127	2.63179	-394.61392	-146.33247	30.15655	294.00235	284.34503	83.80064	247.77385	71.23518	786.87604	-774.26727	-60.62861	579.74023	-428.94781	91.51780	584.69067	-438.47925	-7.72955	566.03241	453.69748	142.11736	564.77814	446.57965	
896	8.950	-172.42001	-2.02121	-438.28897	241.17250	2.53429	-394.69873	-146.35339	30.07224	293.78021	282.50488	94.81065	238.44893	72.14074	786.17786	-774.55286	-61.67205	578.95215	-430.01624	90.53993	584.17999	-439.77130	-9.59297	566.55731	452.56757	140.48022	565.51099	445.91107	
897	8.960	-172.52350	-2.55377	-437.97916	241.46098	2.63084	-394.59003	-146.33128	29.93064	293.67938	280.01285	105.86152	230.21606	72.16413	785.51160	-775.10974	-62.87853	578.12286	-430.86084	89.28296	583.64886	-440.60016	-11.14922	566.79712	451.66486	138.98251	565.93518	444.80099	
898	8.970	-172.46516	-2.90641	-438.13416	241.25635	2.44268	-394.96170	-146.24023	29.98707	293.59573	275.66339	113.34750	226.95099	72.12097	785.41931	-775.52716	-64.34717	578.16254	-431.84418	87.79934	583.68451	-441.50427	-12.63624	566.73383	450.51324	137.69620	565.90460	443.67007	
899	8.980	-172.40802	-2.82937	-437.89413	241.69420	2.53945	-394.71487	-146.07130	30.14164	293.48520	274.43869	121.93653	224.40273	71.63029	785.62634	-775.65417	-65.45441	578.08911	-432.51099	86.43327	583.30731	-442.35495	-13.18126	567.06348	450.24918	136.74744	565.87683	443.10345	
900	8.990	-172.20804	-2.77883	-437.86230	241.33192	2.19825	-395.23145	-145.95563	30.28683	293.35153	274.36374	130.18994	222.31381	70.77221	785.88507	-775.82330	-66.67004	578.04919	-433.27960	85.48924	582.75653	-442.37256	-15.03246	567.16510	448.86429	135.56033	565.90723	442.30948	
901	9.000	-171.70261	-3.26384	-438.05054	241.97423	2.25846	-394.97675	-145.86151	30.38977	293.19788	276.37759	137.30075	218.24422	69.67702	786.08881	-775.82202	-67.77951	577.46393	-434.04980	84.26573	582.30151	-443.78070	-15.32957	567.63165	448.56586	134.57744	566.08856	441.53400	
902	9.010	-171.42386	-4.01837	-438.22549	241.73666	2.06530	-395.32544	-145.70866	30.26357	293.10477	278.56213	142.77322	212.04538	69.09380	785.95032	-775.87085	-68.75874	576.86188	-434.66739	83.59055	581.28058	-443.92767	-16.16913	567.62732	447.98636	133.90294	566.25732	441.22174	
903	9.020	-171.18509	-4.80920	-438.19077	241.92538	1.99260	-395.36432	-145.24275	30.09212	293.05957	279.13904	145.39230	205.34450	68.77601	785.82697	-775.75861	-69.72479	576.23810	-435.24911	82.34007	581.27026	-445.19489	-17.04888	568.07611	447.57297	132.98814	566.44012	440.31094	
904	9.030	-171.07983	-5.01398	-438.15442	241.94373	1.99939	-395.52490	-144.66220	30.12000	293.10696	279.28168	145.03589	199.50885	68.62164	785.79010	-775.70319	-70.76969	576.11102	-435.71484	81.27948	581.22699	-445.74228	-17.46634	568.13892	446.88013	132.58655	566.75018	439.80737	
905	9.040	-172.17953	-4.37638	-438.14972	242.32649	2.12423	-395.39185	-143.88242	30.08289	293.19568	277.85297	143.93579	193.88972	68.68171	785.84552	-775.66833	-71.98345	576.03607	-435.92691	80.07024	581.34888	-446.54446	-17.52170	568.29932	447.04391	132.29567	566.78589	439.30664	
906	9.050	-171.64850	-4.57599	-438.02573	242.35435	2.05441	-395.56372	-144.31551	30.67730	292.89642	277.09735	142.61491	188.81242	68.14185	785.99573	-775.32886	-73.04274	575.86053	-436.11111	78.96706	581.01691	-446.24030	-17.63598	568.19586	446.17596	132.01701	566.66553	438.62347	
907	9.060	-171.23582	-4.98392	-438.06677	242.60582	2.00282	-395.71518	-145.20680	31.40079	292.52972	276.81729	142.07906	184.26080	68.38366	785.93835	-775.26801	-74.17113	575.85809	-436.70526	77.86339	580.94611	-447.28873	-17.90561	567.84589	445.69070	131.91069	566.38495	438.15198	
